<svg xmlns="http://www.w3.org/2000/svg" width="8" height="11" viewBox="0 0 8 11">
  <defs>
    <style>
      .cls-1 {
        fill: gray;
        fill-rule: evenodd;
      }
    </style>
  </defs>
  <path id="facebook.svg" class="cls-1" d="M132.7,875l-1.919,0a3.321,3.321,0,0,0-3.548,3.54v0.786H125.3a0.3,0.3,0,0,0-.3.294v2.365a0.3,0.3,0,0,0,.3.293h1.93v3.43a0.3,0.3,0,0,0,.3.292h2.518a0.3,0.3,0,0,0,.3-0.292v-3.43h2.256a0.3,0.3,0,0,0,.3-0.293v-2.365a0.287,0.287,0,0,0-.089-0.207,0.305,0.305,0,0,0-.213-0.087h-2.257v-0.537a0.846,0.846,0,0,1,1.054-1H132.7a0.3,0.3,0,0,0,.3-0.293v-2.2A0.3,0.3,0,0,0,132.7,875Z" transform="translate(-125 -875)"/>
</svg>
